<?xml version="1.0" encoding="UTF-8" standalone="no"?>
<svg
   xmlns:dc="http://purl.org/dc/elements/1.1/"
   xmlns:cc="http://creativecommons.org/ns#"
   xmlns:rdf="http://www.w3.org/1999/02/22-rdf-syntax-ns#"
   xmlns:svg="http://www.w3.org/2000/svg"
   xmlns="http://www.w3.org/2000/svg"
   xmlns:sodipodi="http://sodipodi.sourceforge.net/DTD/sodipodi-0.dtd"
   xmlns:inkscape="http://www.inkscape.org/namespaces/inkscape"
   version="1.1"
   x="0px"
   y="0px"
   viewBox="0 0 512 512"
   enable-background="new 0 0 512 512"
   xml:space="preserve"
   id="svg20"
   sodipodi:docname="AspNetCore.JsonStreamer.svg"
   inkscape:version="1.0.2-2 (e86c870879, 2021-01-15)"><metadata
   id="metadata26"><rdf:RDF><cc:Work
       rdf:about=""><dc:format>image/svg+xml</dc:format><dc:type
         rdf:resource="http://purl.org/dc/dcmitype/StillImage" /><dc:title></dc:title></cc:Work></rdf:RDF></metadata><defs
   id="defs24" /><sodipodi:namedview
   pagecolor="#ffffff"
   bordercolor="#666666"
   borderopacity="1"
   objecttolerance="10"
   gridtolerance="10"
   guidetolerance="10"
   inkscape:pageopacity="0"
   inkscape:pageshadow="2"
   inkscape:window-width="2406"
   inkscape:window-height="1659"
   id="namedview22"
   showgrid="false"
   inkscape:zoom="2.832472"
   inkscape:cx="256"
   inkscape:cy="244.42945"
   inkscape:window-x="3179"
   inkscape:window-y="105"
   inkscape:window-maximized="0"
   inkscape:current-layer="svg20" />




<g
   id="Layer_6"
   transform="matrix(1.5728091,0,0,1.6445414,-284.2825,1.451304)"
   style="fill:#2c5aa0">
	<path
   fill="#ffb636"
   d="m 414.738,161.526 c -0.641,0 -1.289,-0.051 -1.941,-0.158 -6.542,-1.064 -10.981,-7.23 -9.918,-13.771 1.438,-8.842 0.854,-18.042 -1.689,-26.607 -8.347,-28.107 -37.607,-46.425 -66.625,-41.707 -6.538,1.062 -12.706,-3.375 -13.771,-9.917 -1.063,-6.542 3.376,-12.707 9.918,-13.771 19.83,-3.226 40.305,0.974 57.656,11.825 17.383,10.87 30.107,27.469 35.83,46.738 3.566,12.009 4.386,24.905 2.371,37.293 -0.959,5.889 -6.052,10.075 -11.831,10.075 z m 62.063,-12.28 c 3.027,-18.598 1.797,-37.958 -3.558,-55.989 C 464.66,64.356 445.559,39.449 419.458,23.127 393.398,6.831 362.663,0.522 332.918,5.361 c -6.542,1.064 -10.981,7.23 -9.918,13.771 1.065,6.542 7.233,10.979 13.771,9.917 23.995,-3.905 48.842,1.219 69.962,14.426 21.137,13.218 36.587,33.324 43.502,56.613 4.332,14.586 5.327,30.25 2.878,45.301 -1.065,6.542 3.375,12.708 9.916,13.772 0.653,0.106 1.302,0.158 1.942,0.158 5.779,0 10.872,-4.185 11.83,-10.073 z"
   id="path14"
   style="fill:#2c5aa0" />
</g>
<g
   id="Layer_2"
   transform="matrix(0.73429536,0,0,0.73429536,6.4432295,124.83057)"
   style="fill:#b3b3b3">
	<path
   fill="#adb8bc"
   d="m 276.666,473.233 c 0.007,0.178 0.02,0.356 0.02,0.534 0,20.563 -49.116,37.233 -109.704,37.233 -60.588,0 -109.704,-16.67 -109.704,-37.233 0,-0.179 0.013,-0.356 0.02,-0.534 -0.759,-3.345 -1.159,-7.642 -1.159,-13.089 0,-61.217 49.626,-110.843 110.843,-110.843 61.217,0 110.843,49.626 110.843,110.843 0,5.446 -0.4,9.744 -1.159,13.089 z"
   id="path2"
   style="fill:#b3b3b3" />
</g><g
   id="Layer_3"
   transform="matrix(0.73429536,0,0,0.73429536,6.4432295,124.83057)"
   style="fill:#b3b3b3">
	<path
   fill="#c5cfd1"
   d="m 255.296,226.867 c 69.528,69.528 166.832,84.952 104.321,147.462 C 297.106,436.839 190.068,431.15 120.54,361.622 51.012,292.094 45.323,185.055 107.834,122.545 c 62.511,-62.51 77.934,34.793 147.462,104.322 z"
   id="path5"
   style="fill:#b3b3b3" />
</g><g
   id="Layer_4"
   transform="matrix(0.73429536,0,0,0.73429536,6.4432295,124.83057)"
   style="fill:#4d4d4d">
	<path
   fill="#6c7b7f"
   d="m 309.824,172.339 c 69.528,69.528 96.116,155.668 59.385,192.399 C 332.478,401.469 246.338,374.881 176.81,305.353 107.282,235.825 80.694,149.685 117.425,112.954 154.156,76.223 240.296,102.811 309.824,172.339 Z"
   id="path8"
   style="fill:#4d4d4d" />
</g><g
   id="Layer_5"
   transform="matrix(0.73429536,0,0,0.73429536,6.4432295,124.83057)"
   style="fill:#b3b3b3">
	<path
   fill="#c5cfd1"
   d="m 368.513,165.432 c -10.408,10.408 -25.522,13.232 -38.492,8.488 L 216.213,287.728 c -3.007,3.007 -6.949,4.511 -10.889,4.511 -3.941,0 -7.882,-1.503 -10.889,-4.511 -6.014,-6.014 -6.014,-15.764 0,-21.777 L 308.243,152.143 c -4.745,-12.97 -1.921,-28.084 8.487,-38.492 14.299,-14.299 37.483,-14.299 51.782,0 14.299,14.299 14.3,37.482 10e-4,51.781 z"
   id="path11"
   style="fill:#b3b3b3" />
</g><g
   id="Layer_7"
   transform="matrix(0.73429536,0,0,0.73429536,6.4432295,124.83057)">
	<path
   fill="#6c7b7f"
   d="m 276.666,473.232 c 0.007,0.178 0.02,0.356 0.02,0.534 0,20.563 -49.116,37.233 -109.704,37.233 -60.588,0 -109.704,-16.67 -109.704,-37.233 0,-0.179 0.013,-0.356 0.02,-0.534 -0.759,-3.345 -1.159,-7.642 -1.159,-13.089 0,-3.62 0.179,-7.197 0.518,-10.728 0.171,1.347 0.386,2.575 0.641,3.697 -0.007,0.178 -0.02,0.356 -0.02,0.534 0,3.486 1.416,6.86 4.055,10.06 4.094,4.962 11.142,9.505 20.459,13.398 20.114,8.404 50.802,13.776 85.19,13.776 34.388,0 65.076,-5.372 85.19,-13.776 9.317,-3.893 16.365,-8.435 20.459,-13.398 2.64,-3.2 4.055,-6.574 4.055,-10.06 0,-0.179 -0.013,-0.356 -0.02,-0.534 0.255,-1.122 0.469,-2.351 0.641,-3.697 0.339,3.531 0.518,7.108 0.518,10.728 0,5.447 -0.4,9.745 -1.159,13.089 z"
   id="path17"
   style="fill:#4d4d4d" />
</g>
</svg>
